<svg xmlns="http://www.w3.org/2000/svg" viewBox="0 0 37 37"><path fill="#fff" d="M18.5 0C8.283 0 0 8.283 0 18.5S8.283 37 18.5 37 37 28.717 37 18.5 28.717 0 18.5 0zm0 34.815c-9.01 0-16.315-7.305-16.315-16.315S9.49 2.185 18.5 2.185s16.315 7.305 16.315 16.315S27.51 34.815 18.5 34.815zm7.784-24.17h-2.141v12.49h2.141v-12.49zm-13.427 0h-2.141v12.49h2.141v-12.49zm6.713 0h-2.141v12.49h2.141v-12.49z"/></svg><svg xmlns="http://www.w3.org/2000/svg" viewBox="0 0 37 37"><path fill="#fff" d="M18.5 0C8.283 0 0 8.283 0 18.5S8.283 37 18.5 37 37 28.717 37 18.5 28.717 0 18.5 0zm0 34.815c-9.01 0-16.315-7.305-16.315-16.315S9.49 2.185 18.5 2.185s16.315 7.305 16.315 16.315S27.51 34.815 18.5 34.815zm7.784-24.17h-2.141v12.49h2.141v-12.49zm-13.427 0h-2.141v12.49h2.141v-12.49zm6.713 0h-2.141v12.49h2.141v-12.49z"/></svg>